<svg width="42" height="42" viewBox="0 0 42 42" fill="none" xmlns="http://www.w3.org/2000/svg">
<circle cx="21" cy="21" r="19" fill="#1A1A1A" stroke="white" stroke-width="4"/>
<path fill-rule="evenodd" clip-rule="evenodd" d="M26.832 11.8335C27.2923 11.8335 27.6654 12.2066 27.6654 12.6668V14.3335H29.332C29.7923 14.3335 30.1654 14.7066 30.1654 15.1668C30.1654 15.6271 29.7923 16.0002 29.332 16.0002H27.6654V17.6668C27.6654 18.1271 27.2923 18.5002 26.832 18.5002C26.3718 18.5002 25.9987 18.1271 25.9987 17.6668V16.0002H24.332C23.8718 16.0002 23.4987 15.6271 23.4987 15.1668C23.4987 14.7066 23.8718 14.3335 24.332 14.3335H25.9987V12.6668C25.9987 12.2066 26.3718 11.8335 26.832 11.8335ZM17.963 12.6668H21.4154C21.8756 12.6668 22.2487 13.0399 22.2487 13.5002C22.2487 13.9604 21.8756 14.3335 21.4154 14.3335H17.9987C17.0515 14.3335 16.3913 14.3341 15.8772 14.3761C15.3729 14.4173 15.0832 14.4942 14.8637 14.606C14.3933 14.8457 14.0109 15.2281 13.7712 15.6985C13.6594 15.918 13.5825 16.2077 13.5413 16.712C13.4993 17.2261 13.4987 17.8863 13.4987 18.8335V23.1668C13.4987 24.114 13.4993 24.7743 13.5413 25.2883C13.5825 25.7926 13.6594 26.0823 13.7712 26.3018C14.0109 26.7722 14.3933 27.1547 14.8637 27.3943C15.0832 27.5062 15.3729 27.583 15.8772 27.6242C16.3913 27.6662 17.0515 27.6668 17.9987 27.6668H23.9987C24.9459 27.6668 25.6061 27.6662 26.1202 27.6242C26.6245 27.583 26.9142 27.5062 27.1337 27.3943C27.6041 27.1547 27.9865 26.7722 28.2262 26.3018C28.338 26.0823 28.4148 25.7926 28.4561 25.2883C28.4981 24.7743 28.4987 24.114 28.4987 23.1668V20.5835C28.4987 20.1233 28.8718 19.7502 29.332 19.7502C29.7923 19.7502 30.1654 20.1233 30.1654 20.5835V23.2025C30.1654 24.1057 30.1654 24.8341 30.1172 25.424C30.0676 26.0314 29.9627 26.5649 29.7112 27.0585C29.3118 27.8425 28.6743 28.4799 27.8903 28.8794C27.3968 29.1308 26.8633 29.2357 26.2559 29.2853C25.666 29.3335 24.9375 29.3335 24.0344 29.3335H17.963C17.0599 29.3335 16.3314 29.3335 15.7415 29.2853C15.1341 29.2357 14.6006 29.1308 14.1071 28.8794C13.3231 28.4799 12.6856 27.8425 12.2862 27.0585C12.0347 26.5649 11.9298 26.0314 11.8802 25.424C11.832 24.8341 11.832 24.1057 11.832 23.2025V18.7978C11.832 17.8947 11.832 17.1662 11.8802 16.5763C11.9298 15.9689 12.0347 15.4354 12.2862 14.9419C12.6856 14.1579 13.3231 13.5204 14.1071 13.121C14.6006 12.8695 15.1341 12.7646 15.7415 12.715C16.3314 12.6668 17.0599 12.6668 17.963 12.6668ZM20.9987 18.5002C19.618 18.5002 18.4987 19.6195 18.4987 21.0002C18.4987 22.3809 19.618 23.5002 20.9987 23.5002C22.3794 23.5002 23.4987 22.3809 23.4987 21.0002C23.4987 19.6195 22.3794 18.5002 20.9987 18.5002ZM16.832 21.0002C16.832 18.699 18.6975 16.8335 20.9987 16.8335C23.2999 16.8335 25.1654 18.699 25.1654 21.0002C25.1654 23.3013 23.2999 25.1668 20.9987 25.1668C18.6975 25.1668 16.832 23.3013 16.832 21.0002Z" fill="white"/>
</svg>
